<svg width="32" height="32" viewBox="0 0 32 32" fill="none" xmlns="http://www.w3.org/2000/svg">
  <rect width="32" height="32" rx="6" fill="black"/>
  <path d="M11.9 8.8H16C18.2 8.8 19.8 9.4 20.9 10.5C22 11.6 22.5 13.2 22.5 15.2C22.5 17.2 22 18.9 20.9 20C19.8 21.1 18.2 21.7 16 21.7H11.9V8.8Z" fill="white" stroke="black" stroke-width="0.25"/>
  <path d="M15.9 19.5C17.1 19.5 18 19.1 18.6 18.5C19.2 17.9 19.5 16.8 19.5 15.2C19.5 13.7 19.2 12.6 18.6 12C18 11.4 17.1 11 15.9 11H14.5V19.5H15.9Z" fill="black"/>
</svg> 